<svg width="66" height="66" viewBox="0 0 66 66" fill="none" xmlns="http://www.w3.org/2000/svg">
<g clip-path="url(#clip0_4_6)">
<path d="M33 5.5C17.82 5.5 5.5 17.82 5.5 33C5.5 48.18 17.82 60.5 33 60.5C48.18 60.5 60.5 48.18 60.5 33C60.5 17.82 48.18 5.5 33 5.5ZM33 13.75C37.565 13.75 41.25 17.435 41.25 22C41.25 26.565 37.565 30.25 33 30.25C28.435 30.25 24.75 26.565 24.75 22C24.75 17.435 28.435 13.75 33 13.75ZM33 52.8C26.125 52.8 20.0475 49.28 16.5 43.945C16.5825 38.4725 27.5 35.475 33 35.475C38.4725 35.475 49.4175 38.4725 49.5 43.945C45.9525 49.28 39.875 52.8 33 52.8Z" fill="#001E1F"/>
</g>
<defs>
<clipPath id="clip0_4_6">
<rect width="66" height="66" fill="white"/>
</clipPath>
</defs>
</svg>
